{
	"asset":{
		"generator":"Khronos glTF Blender I/O v3.6.27",
		"version":"2.0"
	},
	"extensionsUsed":[
		"KHR_materials_specular",
		"KHR_materials_ior"
	],
	"scene":0,
	"scenes":[
		{
			"name":"Scene",
			"nodes":[
				14
			]
		}
	],
	"nodes":[
		{
			"mesh":0,
			"name":"Cube",
			"translation":[
				2.3245811462402344e-05,
				-8.862867980496958e-05,
				-1.12759530544281
			]
		},
		{
			"mesh":1,
			"name":"Cube_1",
			"translation":[
				2.3245811462402344e-05,
				-8.86415655259043e-05,
				-2.3042638301849365
			]
		},
		{
			"mesh":2,
			"name":"Extrude_2"
		},
		{
			"children":[
				2
			],
			"name":"Extrude",
			"rotation":[
				0,
				0,
				-0.7071068286895752,
				0.7071068286895752
			],
			"translation":[
				0.10296434164047241,
				0,
				0
			]
		},
		{
			"mesh":3,
			"name":"Extrude_1_2"
		},
		{
			"children":[
				4
			],
			"name":"Extrude_1",
			"translation":[
				0,
				0.1595306545495987,
				0
			]
		},
		{
			"children":[
				3,
				5
			],
			"name":"Null_1",
			"rotation":[
				0,
				0,
				-0.3826834261417389,
				0.9238795638084412
			],
			"translation":[
				0.04848122596740723,
				-0.08484190702438354,
				-2.239988088607788
			]
		},
		{
			"mesh":4,
			"name":"Sphere",
			"translation":[
				0,
				0,
				-13.272147178649902
			]
		},
		{
			"mesh":5,
			"name":"Extrude_1_0",
			"rotation":[
				0,
				0,
				-1,
				4.371138828673793e-08
			],
			"translation":[
				0,
				-2.8961565494537354,
				0
			]
		},
		{
			"mesh":6,
			"name":"Extrude_2_1",
			"rotation":[
				0,
				0,
				-0.7071068286895752,
				0.7071068286895752
			],
			"translation":[
				2.8961567878723145,
				0,
				0
			]
		},
		{
			"mesh":7,
			"name":"Extrude_3_3",
			"rotation":[
				0,
				0,
				0.7071068286895752,
				0.7071068286895752
			],
			"translation":[
				-2.8961563110351562,
				0,
				0
			]
		},
		{
			"mesh":8,
			"name":"\u0627\u0644\u0645\u0633\u0627\u0631\u0627\u062a_2",
			"translation":[
				0,
				2.8961563110351562,
				0
			]
		},
		{
			"children":[
				8,
				9,
				10,
				11
			],
			"name":"Cloner",
			"translation":[
				0,
				0,
				-0.06116874888539314
			]
		},
		{
			"children":[
				12
			],
			"name":"\u0646\u0635\u0648\u0635_\u0627\u0644\u0642\u0627\u0639\u062f\u0629",
			"translation":[
				2.3245811462402344e-05,
				-8.863640687195584e-05,
				-1.1750409603118896
			]
		},
		{
			"children":[
				0,
				1,
				6,
				7,
				13
			],
			"name":"AWARDS",
			"rotation":[
				0.70710688829422,
				0,
				0,
				0.7071066498756409
			],
			"scale":[
				0.009999999776482582,
				0.009999999776482582,
				0.009999999776482582
			],
			"translation":[
				0.011431238614022732,
				0.0031475829891860485,
				-0.0026237592101097107
			]
		}
	],
	"materials":[
		{
			"doubleSided":true,
			"extensions":{
				"KHR_materials_specular":{
					"specularColorFactor":[
						2.371357614441398,
						2.371357614441398,
						2.371357614441398
					]
				},
				"KHR_materials_ior":{
					"ior":1.4500000476837158
				}
			},
			"name":"RS Material_4",
			"pbrMetallicRoughness":{
				"baseColorFactor":[
					0.800000011920929,
					0.800000011920929,
					0.800000011920929,
					1
				],
				"roughnessFactor":0.5527864098548889
			}
		},
		{
			"doubleSided":true,
			"extensions":{
				"KHR_materials_specular":{
					"specularColorFactor":[
						0,
						0,
						0
					]
				},
				"KHR_materials_ior":{
					"ior":1.4500000476837158
				}
			},
			"name":"RS Material_5",
			"pbrMetallicRoughness":{
				"baseColorFactor":[
					0,
					0,
					0,
					1
				],
				"roughnessFactor":0
			}
		},
		{
			"doubleSided":true,
			"extensions":{
				"KHR_materials_specular":{
					"specularColorFactor":[
						0,
						0,
						0
					]
				},
				"KHR_materials_ior":{
					"ior":1.4500000476837158
				}
			},
			"name":"RS Material_8",
			"pbrMetallicRoughness":{
				"baseColorFactor":[
					0,
					0,
					0,
					1
				],
				"roughnessFactor":0.45923569798469543
			}
		}
	],
	"meshes":[
		{
			"name":"Mesh.005",
			"primitives":[
				{
					"attributes":{
						"POSITION":0,
						"NORMAL":1,
						"TEXCOORD_0":2
					},
					"indices":3,
					"material":0
				}
			]
		},
		{
			"name":"Mesh.006",
			"primitives":[
				{
					"attributes":{
						"POSITION":4,
						"NORMAL":5,
						"TEXCOORD_0":6
					},
					"indices":7,
					"material":1
				}
			]
		},
		{
			"name":"Mesh.007",
			"primitives":[
				{
					"attributes":{
						"POSITION":8,
						"NORMAL":9,
						"TEXCOORD_0":10
					},
					"indices":11,
					"material":1
				}
			]
		},
		{
			"name":"Mesh.008",
			"primitives":[
				{
					"attributes":{
						"POSITION":12,
						"NORMAL":13,
						"TEXCOORD_0":14
					},
					"indices":15,
					"material":1
				}
			]
		},
		{
			"name":"Mesh",
			"primitives":[
				{
					"attributes":{
						"POSITION":16,
						"NORMAL":17,
						"TEXCOORD_0":18
					},
					"indices":19,
					"material":1
				}
			]
		},
		{
			"name":"Mesh.001",
			"primitives":[
				{
					"attributes":{
						"POSITION":20,
						"NORMAL":21,
						"TEXCOORD_0":22
					},
					"indices":23,
					"material":2
				}
			]
		},
		{
			"name":"Mesh.002",
			"primitives":[
				{
					"attributes":{
						"POSITION":24,
						"NORMAL":25,
						"TEXCOORD_0":26
					},
					"indices":27,
					"material":2
				}
			]
		},
		{
			"name":"Mesh.004",
			"primitives":[
				{
					"attributes":{
						"POSITION":28,
						"NORMAL":29,
						"TEXCOORD_0":30
					},
					"indices":27,
					"material":2
				}
			]
		},
		{
			"name":"Mesh.003",
			"primitives":[
				{
					"attributes":{
						"POSITION":31,
						"NORMAL":32,
						"TEXCOORD_0":33
					},
					"indices":34,
					"material":2
				}
			]
		}
	],
	"accessors":[
		{
			"bufferView":0,
			"componentType":5126,
			"count":24,
			"max":[
				2.89583420753479,
				2.89583420753479,
				1.1022626161575317
			],
			"min":[
				-2.89583420753479,
				-2.89583420753479,
				-1.1022626161575317
			],
			"type":"VEC3"
		},
		{
			"bufferView":1,
			"componentType":5126,
			"count":24,
			"type":"VEC3"
		},
		{
			"bufferView":2,
			"componentType":5126,
			"count":24,
			"type":"VEC2"
		},
		{
			"bufferView":3,
			"componentType":5123,
			"count":36,
			"type":"SCALAR"
		},
		{
			"bufferView":4,
			"componentType":5126,
			"count":1062,
			"max":[
				2.89583420753479,
				2.89583420753479,
				0.05000000074505806
			],
			"min":[
				-2.89583420753479,
				-2.89583420753479,
				-0.05000000074505806
			],
			"type":"VEC3"
		},
		{
			"bufferView":5,
			"componentType":5126,
			"count":1062,
			"type":"VEC3"
		},
		{
			"bufferView":6,
			"componentType":5126,
			"count":1062,
			"type":"VEC2"
		},
		{
			"bufferView":7,
			"componentType":5123,
			"count":5316,
			"type":"SCALAR"
		},
		{
			"bufferView":8,
			"componentType":5126,
			"count":125366,
			"max":[
				3.7004077434539795,
				0.025911731645464897,
				0.024640720337629318
			],
			"min":[
				-3.7004077434539795,
				-0.3259117305278778,
				-14.03308391571045
			],
			"type":"VEC3"
		},
		{
			"bufferView":9,
			"componentType":5126,
			"count":125366,
			"type":"VEC3"
		},
		{
			"bufferView":10,
			"componentType":5126,
			"count":125366,
			"type":"VEC2"
		},
		{
			"bufferView":11,
			"componentType":5125,
			"count":679872,
			"type":"SCALAR"
		},
		{
			"bufferView":12,
			"componentType":5126,
			"count":127128,
			"max":[
				3.7004077434539795,
				0.025911731645464897,
				0.024640720337629318
			],
			"min":[
				-3.7004077434539795,
				-0.3259117305278778,
				-14.03308391571045
			],
			"type":"VEC3"
		},
		{
			"bufferView":13,
			"componentType":5126,
			"count":127128,
			"type":"VEC3"
		},
		{
			"bufferView":14,
			"componentType":5126,
			"count":127128,
			"type":"VEC2"
		},
		{
			"bufferView":15,
			"componentType":5125,
			"count":687072,
			"type":"SCALAR"
		},
		{
			"bufferView":16,
			"componentType":5126,
			"count":1324,
			"max":[
				0.9368476867675781,
				0.9349989891052246,
				0.9386999607086182
			],
			"min":[
				-0.9368476867675781,
				-0.9349989891052246,
				-0.9386999607086182
			],
			"type":"VEC3"
		},
		{
			"bufferView":17,
			"componentType":5126,
			"count":1324,
			"type":"VEC3"
		},
		{
			"bufferView":18,
			"componentType":5126,
			"count":1324,
			"type":"VEC2"
		},
		{
			"bufferView":19,
			"componentType":5123,
			"count":7200,
			"type":"SCALAR"
		},
		{
			"bufferView":20,
			"componentType":5126,
			"count":3150,
			"max":[
				1.295389175415039,
				-9.144371186913663e-15,
				0.7355364561080933
			],
			"min":[
				-1.295389175415039,
				-1.0466479503294483e-14,
				-0.7355364561080933
			],
			"type":"VEC3"
		},
		{
			"bufferView":21,
			"componentType":5126,
			"count":3150,
			"type":"VEC3"
		},
		{
			"bufferView":22,
			"componentType":5126,
			"count":3150,
			"type":"VEC2"
		},
		{
			"bufferView":23,
			"componentType":5123,
			"count":9228,
			"type":"SCALAR"
		},
		{
			"bufferView":24,
			"componentType":5126,
			"count":3944,
			"max":[
				2.8932666778564453,
				-6.731688892701619e-15,
				0.2702471613883972
			],
			"min":[
				-2.8932666778564453,
				-9.684633364627927e-15,
				-0.2702471613883972
			],
			"type":"VEC3"
		},
		{
			"bufferView":25,
			"componentType":5126,
			"count":3944,
			"type":"VEC3"
		},
		{
			"bufferView":26,
			"componentType":5126,
			"count":3944,
			"type":"VEC2"
		},
		{
			"bufferView":27,
			"componentType":5123,
			"count":11556,
			"type":"SCALAR"
		},
		{
			"bufferView":28,
			"componentType":5126,
			"count":3944,
			"max":[
				2.8932666778564453,
				-6.731688892701619e-15,
				0.2702471613883972
			],
			"min":[
				-2.8932666778564453,
				-9.684633364627927e-15,
				-0.2702471613883972
			],
			"type":"VEC3"
		},
		{
			"bufferView":29,
			"componentType":5126,
			"count":3944,
			"type":"VEC3"
		},
		{
			"bufferView":30,
			"componentType":5126,
			"count":3944,
			"type":"VEC2"
		},
		{
			"bufferView":31,
			"componentType":5126,
			"count":3146,
			"max":[
				1.9749318361282349,
				7.316806123654207e-16,
				0.8095769882202148
			],
			"min":[
				-2.3640172481536865,
				7.3036792305541335e-16,
				-0.8669350147247314
			],
			"type":"VEC3"
		},
		{
			"bufferView":32,
			"componentType":5126,
			"count":3146,
			"type":"VEC3"
		},
		{
			"bufferView":33,
			"componentType":5126,
			"count":3146,
			"type":"VEC2"
		},
		{
			"bufferView":34,
			"componentType":5123,
			"count":9228,
			"type":"SCALAR"
		}
	],
	"bufferViews":[
		{
			"buffer":0,
			"byteLength":288,
			"byteOffset":0,
			"target":34962
		},
		{
			"buffer":0,
			"byteLength":288,
			"byteOffset":288,
			"target":34962
		},
		{
			"buffer":0,
			"byteLength":192,
			"byteOffset":576,
			"target":34962
		},
		{
			"buffer":0,
			"byteLength":72,
			"byteOffset":768,
			"target":34963
		},
		{
			"buffer":0,
			"byteLength":12744,
			"byteOffset":840,
			"target":34962
		},
		{
			"buffer":0,
			"byteLength":12744,
			"byteOffset":13584,
			"target":34962
		},
		{
			"buffer":0,
			"byteLength":8496,
			"byteOffset":26328,
			"target":34962
		},
		{
			"buffer":0,
			"byteLength":10632,
			"byteOffset":34824,
			"target":34963
		},
		{
			"buffer":0,
			"byteLength":1504392,
			"byteOffset":45456,
			"target":34962
		},
		{
			"buffer":0,
			"byteLength":1504392,
			"byteOffset":1549848,
			"target":34962
		},
		{
			"buffer":0,
			"byteLength":1002928,
			"byteOffset":3054240,
			"target":34962
		},
		{
			"buffer":0,
			"byteLength":2719488,
			"byteOffset":4057168,
			"target":34963
		},
		{
			"buffer":0,
			"byteLength":1525536,
			"byteOffset":6776656,
			"target":34962
		},
		{
			"buffer":0,
			"byteLength":1525536,
			"byteOffset":8302192,
			"target":34962
		},
		{
			"buffer":0,
			"byteLength":1017024,
			"byteOffset":9827728,
			"target":34962
		},
		{
			"buffer":0,
			"byteLength":2748288,
			"byteOffset":10844752,
			"target":34963
		},
		{
			"buffer":0,
			"byteLength":15888,
			"byteOffset":13593040,
			"target":34962
		},
		{
			"buffer":0,
			"byteLength":15888,
			"byteOffset":13608928,
			"target":34962
		},
		{
			"buffer":0,
			"byteLength":10592,
			"byteOffset":13624816,
			"target":34962
		},
		{
			"buffer":0,
			"byteLength":14400,
			"byteOffset":13635408,
			"target":34963
		},
		{
			"buffer":0,
			"byteLength":37800,
			"byteOffset":13649808,
			"target":34962
		},
		{
			"buffer":0,
			"byteLength":37800,
			"byteOffset":13687608,
			"target":34962
		},
		{
			"buffer":0,
			"byteLength":25200,
			"byteOffset":13725408,
			"target":34962
		},
		{
			"buffer":0,
			"byteLength":18456,
			"byteOffset":13750608,
			"target":34963
		},
		{
			"buffer":0,
			"byteLength":47328,
			"byteOffset":13769064,
			"target":34962
		},
		{
			"buffer":0,
			"byteLength":47328,
			"byteOffset":13816392,
			"target":34962
		},
		{
			"buffer":0,
			"byteLength":31552,
			"byteOffset":13863720,
			"target":34962
		},
		{
			"buffer":0,
			"byteLength":23112,
			"byteOffset":13895272,
			"target":34963
		},
		{
			"buffer":0,
			"byteLength":47328,
			"byteOffset":13918384,
			"target":34962
		},
		{
			"buffer":0,
			"byteLength":47328,
			"byteOffset":13965712,
			"target":34962
		},
		{
			"buffer":0,
			"byteLength":31552,
			"byteOffset":14013040,
			"target":34962
		},
		{
			"buffer":0,
			"byteLength":37752,
			"byteOffset":14044592,
			"target":34962
		},
		{
			"buffer":0,
			"byteLength":37752,
			"byteOffset":14082344,
			"target":34962
		},
		{
			"buffer":0,
			"byteLength":25168,
			"byteOffset":14120096,
			"target":34962
		},
		{
			"buffer":0,
			"byteLength":18456,
			"byteOffset":14145264,
			"target":34963
		}
	],
	"buffers":[
		{
			"byteLength":14163720,
			"uri":"award.bin"
		}
	]
}
